<svg version="1.1" xmlns="http://www.w3.org/2000/svg" xmlns:xlink="http://www.w3.org/1999/xlink" width="137.71903" height="137.71903" viewBox="0,0,137.71903,137.71903"><defs><linearGradient x1="221.54318" y1="246.32175" x2="258.45679" y2="113.67828" gradientUnits="userSpaceOnUse" id="color-1"><stop offset="0" stop-color="#00320f"/><stop offset="1" stop-color="#000000"/></linearGradient></defs><g transform="translate(-171.14049,-111.14049)"><g data-paper-data="{&quot;isPaintingLayer&quot;:true}" fill-rule="nonzero" stroke-width="1" stroke-linecap="butt" stroke-linejoin="miter" stroke-miterlimit="10" stroke-dasharray="" stroke-dashoffset="0" style="mix-blend-mode: normal"><path d="M258.45679,113.67826c36.62849,10.19341 58.05835,48.15006 47.86495,84.77854c-10.19341,36.62849 -48.15005,58.05834 -84.77853,47.86494c-36.62849,-10.19341 -58.05835,-48.15005 -47.86495,-84.77853c10.19341,-36.62849 48.15005,-58.05835 84.77853,-47.86495z" data-paper-data="{&quot;index&quot;:null}" fill="url(#color-1)" stroke="none"/><g fill="#00ff31" stroke="#012e00"><path d="M208.48865,189.0802v-3.62294h-3.66686v-18.60874h3.66686v-3.66686h11.36286v3.66686h3.6998v18.60875h-3.69979v3.62294zM208.89485,185.05106h10.55045v-17.80731h-10.55044z"/><path d="M228.42622,189.0802v-18.60874h11.3958v3.66686h3.22771v-3.66686h7.77285v3.66686h3.62294v14.94189h-4.02915v-14.57959h-6.96044v14.57959h-4.02915v-14.57959h-6.9275v14.57959z"/><path d="M208.50374,178.06866h3.56805v-3.66686h3.71078v-3.66685h3.62294v-3.62294h4.106v4.02915h-3.69979v3.66686h-3.63392v3.66685h-3.81689l0.06221,3.57903h-3.91936z" data-paper-data="{&quot;index&quot;:null}"/><path d="M286.0978,189.0802v-3.62294h-3.62294v-10.95665h-3.66686v-4.02915h3.66686v-7.2898h4.02916v7.2898h11.03351v4.02916h-11.03351v10.55044h7.00801v-3.66685h4.06209v4.07307h-3.66685v3.62294z"/><path d="M186.09274,189.0802v-3.62294h-3.66685v-11.31894h3.66685v-3.66686h11.36287v3.66686h3.6998v3.98524h-4.10601v-3.62294h-10.55043v10.55044h10.55044v-3.66685h4.10601v4.07307h-3.69979v3.62294z"/><path d="M271.07424,189.0802v-18.60874h4.07307v18.60875z"/><path d="M262.93887,189.79202l-4.10969,-4.10969l4.1097,-4.1097l4.1097,4.1097z"/><path d="M271.07424,167.24375v-4.06209h4.07307v4.06209z"/></g><g fill="#00ff31" stroke="#027700"><path d="M208.48865,189.0802v-3.62294h-3.66686v-18.60874h3.66686v-3.66686h11.36286v3.66686h3.6998v18.60875h-3.69979v3.62294zM208.89485,185.05106h10.55045v-17.80731h-10.55044z"/><path d="M228.42622,189.0802v-18.60874h11.3958v3.66686h3.22771v-3.66686h7.77285v3.66686h3.62294v14.94189h-4.02915v-14.57959h-6.96044v14.57959h-4.02915v-14.57959h-6.9275v14.57959z"/><path d="M208.50374,178.06866h3.56805v-3.66686h3.71078v-3.66685h3.62294v-3.62294h4.106v4.02915h-3.69979v3.66686h-3.63392v3.66685h-3.81689l0.06221,3.57903h-3.91936z" data-paper-data="{&quot;index&quot;:null}"/><path d="M286.0978,189.0802v-3.62294h-3.62294v-10.95665h-3.66686v-4.02915h3.66686v-7.2898h4.02916v7.2898h11.03351v4.02916h-11.03351v10.55044h7.00801v-3.66685h4.06209v4.07307h-3.66685v3.62294z"/><path d="M186.09274,189.0802v-3.62294h-3.66685v-11.31894h3.66685v-3.66686h11.36287v3.66686h3.6998v3.98524h-4.10601v-3.62294h-10.55043v10.55044h10.55044v-3.66685h4.10601v4.07307h-3.69979v3.62294z"/><path d="M271.07424,189.0802v-18.60874h4.07307v18.60875z"/><path d="M262.93887,189.79202l-4.10969,-4.10969l4.1097,-4.1097l4.1097,4.1097z"/><path d="M271.07424,167.24375v-4.06209h4.07307v4.06209z"/></g><g fill="#00ff31" stroke="#04b300"><path d="M208.48865,189.0802v-3.62294h-3.66686v-18.60874h3.66686v-3.66686h11.36286v3.66686h3.6998v18.60875h-3.69979v3.62294zM208.89485,185.05106h10.55045v-17.80731h-10.55044z"/><path d="M228.42622,189.0802v-18.60874h11.3958v3.66686h3.22771v-3.66686h7.77285v3.66686h3.62294v14.94189h-4.02915v-14.57959h-6.96044v14.57959h-4.02915v-14.57959h-6.9275v14.57959z"/><path d="M208.50374,178.06866h3.56805v-3.66686h3.71078v-3.66685h3.62294v-3.62294h4.106v4.02915h-3.69979v3.66686h-3.63392v3.66685h-3.81689l0.06221,3.57903h-3.91936z" data-paper-data="{&quot;index&quot;:null}"/><path d="M286.0978,189.0802v-3.62294h-3.62294v-10.95665h-3.66686v-4.02915h3.66686v-7.2898h4.02916v7.2898h11.03351v4.02916h-11.03351v10.55044h7.00801v-3.66685h4.06209v4.07307h-3.66685v3.62294z"/><path d="M186.09274,189.0802v-3.62294h-3.66685v-11.31894h3.66685v-3.66686h11.36287v3.66686h3.6998v3.98524h-4.10601v-3.62294h-10.55043v10.55044h10.55044v-3.66685h4.10601v4.07307h-3.69979v3.62294z"/><path d="M271.07424,189.0802v-18.60874h4.07307v18.60875z"/><path d="M262.93887,189.79202l-4.10969,-4.10969l4.1097,-4.1097l4.1097,4.1097z"/><path d="M271.07424,167.24375v-4.06209h4.07307v4.06209z"/></g><g fill="#00ff31" stroke="none"><path d="M208.48865,189.0802v-3.62294h-3.66686v-18.60874h3.66686v-3.66686h11.36286v3.66686h3.6998v18.60875h-3.69979v3.62294zM208.89485,185.05106h10.55045v-17.80731h-10.55044z"/><path d="M228.42622,189.0802v-18.60874h11.3958v3.66686h3.22771v-3.66686h7.77285v3.66686h3.62294v14.94189h-4.02915v-14.57959h-6.96044v14.57959h-4.02915v-14.57959h-6.9275v14.57959z"/><path d="M208.50374,178.06866h3.56805v-3.66686h3.71078v-3.66685h3.62294v-3.62294h4.106v4.02915h-3.69979v3.66686h-3.63392v3.66685h-3.81689l0.06221,3.57903h-3.91936z" data-paper-data="{&quot;index&quot;:null}"/><path d="M286.0978,189.0802v-3.62294h-3.62294v-10.95665h-3.66686v-4.02915h3.66686v-7.2898h4.02916v7.2898h11.03351v4.02916h-11.03351v10.55044h7.00801v-3.66685h4.06209v4.07307h-3.66685v3.62294z"/><path d="M186.09274,189.0802v-3.62294h-3.66685v-11.31894h3.66685v-3.66686h11.36287v3.66686h3.6998v3.98524h-4.10601v-3.62294h-10.55043v10.55044h10.55044v-3.66685h4.10601v4.07307h-3.69979v3.62294z"/><path d="M271.07424,189.0802v-18.60874h4.07307v18.60875z"/><path d="M262.93887,189.79202l-4.10969,-4.10969l4.1097,-4.1097l4.1097,4.1097z"/><path d="M271.07424,167.24375v-4.06209h4.07307v4.06209z"/></g><g stroke="none"><path d="M201.52886,209.31582v-2.54143h1.9709v2.54143z" fill-opacity="0.3503" fill="#00ff33"/><path d="M200.7405,216.8477v-4.52837h3.5118v4.52837z" fill="#00ff31"/><path d="M201.063,212.7352v-3.69662h2.86678v3.69662z" fill-opacity="0.56452" fill="#00ff33"/><path d="M201.99471,206.95923v-1.47865h1.14671v1.47865z" fill-opacity="0.16448" fill="#00ff33"/></g><g stroke="none"><path d="M226.10967,147.83351l-14.64552,2.03015l-1.57441,-11.35776l14.64552,-2.03015z" fill-opacity="0.3503" fill="#00ff33"/><path d="M270.14342,146.35997l-26.09565,3.61737l-2.80531,-20.23744l26.09566,-3.61737z" fill="#00ff31"/><path d="M246.18667,147.7866l-21.30257,2.95295l-2.29005,-16.52035l21.30257,-2.95296z" fill-opacity="0.56452" fill="#00ff33"/><path d="M212.15714,147.03146l-8.52104,1.18119l-0.91601,-6.60816l8.52104,-1.18118z" fill-opacity="0.16448" fill="#00ff33"/></g><g stroke="none"><path d="M281.39458,204.2565v-3.37925h1.97091v3.37925z" fill-opacity="0.3503" fill="#00ff33"/><path d="M280.60621,214.27139v-6.02122h3.5118v6.02122z" fill="#00ff31"/><path d="M280.92872,208.80314v-4.91529h2.86677v4.91529z" fill-opacity="0.56452" fill="#00ff33"/><path d="M281.86043,201.12301v-1.96611h1.14671v1.96611z" fill-opacity="0.16448" fill="#00ff33"/></g><g stroke="none"><path d="M250.73692,224.86701v-3.37926h1.44513v3.37926z" fill-opacity="0.3503" fill="#00ff33"/><path d="M250.15888,234.8819v-6.02122h2.57495v6.02122z" fill="#00ff31"/><path d="M250.39535,229.41365v-4.91528h2.10201v4.91528z" fill-opacity="0.56452" fill="#00ff33"/><path d="M251.0785,221.73352v-1.96611h0.8408v1.96611z" fill-opacity="0.16448" fill="#00ff33"/></g><g stroke="none"><path d="M216.65215,212.22975v-5.40354h2.89102v5.40354z" fill-opacity="0.3503" fill="#00ff33"/><path d="M215.49574,228.24389v-9.62813h5.15127v9.62813z" fill="#00ff31"/><path d="M215.96882,219.49997v-7.85969h4.20512v7.85969z" fill-opacity="0.56452" fill="#00ff33"/><path d="M217.33548,207.2192v-3.14389h1.68205v3.14389z" fill-opacity="0.16448" fill="#00ff33"/></g><g stroke="none"><path d="M237.57194,211.31766v-2.47115h1.32212v2.47115z" fill-opacity="0.3503" fill="#00ff33"/><path d="M237.04309,218.64127v-4.40314h2.35578v4.40314z" fill="#00ff31"/><path d="M237.25944,214.64249v-3.5944h1.92309v3.5944z" fill-opacity="0.56452" fill="#00ff33"/><path d="M237.88444,209.02623v-1.43777h0.76923v1.43777z" fill-opacity="0.16448" fill="#00ff33"/></g><g stroke="none"><path d="M260.88354,208.26385v-3.70673h3.69197v3.70673z" fill-opacity="0.3503" fill="#00ff33"/><path d="M259.40676,219.24925v-6.60472h6.57841v6.60472z" fill="#00ff31"/><path d="M260.01089,213.25108v-5.3916h5.37014v5.3916z" fill-opacity="0.56452" fill="#00ff33"/><path d="M261.7562,204.8267v-2.15664h2.14805v2.15664z" fill-opacity="0.16448" fill="#00ff33"/></g></g></g></svg>